<svg class="thumb" width="5000" height="5000" viewBox="0,0,600,600" xmlns="http://www.w3.org/2000/svg" xmlns:inkscape="http://www.inkscape.org/namespaces/inkscape" xmlns:sodipodi="http://sodipodi.sourceforge.net/DTD/sodipodi-0.dtd" xmlns:xlink="http://www.w3.org/1999/xlink" xmlns:ns1="http://www.inkscape.org/namespaces/inkscape" xmlns:sketch="http://www.bohemiancoding.com/sketch/ns">
  <defs><style type='text/css'></style></defs>
  <g transform="matrix(0.6158,0,0,0.6158,-40.9612,199.6453)">
    <g transform="matrix(-1.2592,1.4486,-1.4486,-1.2592,371.1552,127.335)">
      <svg width="97" height="101.703" viewBox="2.4989999999999988,0.1479999999999979,97,101.703">
        <defs>
          <linearGradient x1="0" y1="0.5" x2="1" y2="0.5" id="linearGradientSjmnk87xm4">
            <stop offset="26.54%" stop-color="#f2af58"></stop>
            <stop offset="39.81%" stop-color="#74d14c"></stop>
            <stop offset="68.96%" stop-color="#083b66"></stop>
            <stop offset="100%" stop-color="#083b66"></stop>
          </linearGradient>
        </defs>
        <g>
          <path fill-rule="evenodd" clip-rule="evenodd" d="M82.743,28.662c-5.281,0-9.699-3.506-11.181-8.302l-4.053,0.9l-1.102-4.573  l4.707-1.045c0.636-5.891,5.566-10.494,11.628-10.494c6.494,0,11.757,5.264,11.757,11.757S89.237,28.662,82.743,28.662z   M82.743,9.852c-3.895,0-7.054,3.158-7.054,7.054s3.159,7.054,7.054,7.054s7.054-3.159,7.054-7.054S86.638,9.852,82.743,9.852z   M87.446,75.689c0,11.688-9.475,21.162-21.162,21.162c-11.688,0-21.163-9.475-21.163-21.162c0-5.816,2.349-11.082,6.147-14.907  l-6.562-7.344l3.45-3.196l6.789,7.599c3.281-2.088,7.164-3.313,11.339-3.313C77.972,54.527,87.446,64.001,87.446,75.689z   M66.284,59.229c-9.091,0-16.46,7.369-16.46,16.46s7.369,16.459,16.46,16.459s16.459-7.368,16.459-16.459  S75.375,59.229,66.284,59.229z M51.941,19.902l9.876-2.194l1.103,4.573l-9.876,2.193L51.941,19.902z M40.419,28.662  c0,3.549-1.148,6.814-3.059,9.503l7.661,8.572l-3.45,3.198l-7.491-8.382c-2.799,2.202-6.285,3.569-10.122,3.569  c-9.091,0-16.459-7.369-16.459-16.459s7.369-16.459,16.459-16.459c6.987,0,12.921,4.371,15.309,10.515l8.082-1.796l1.102,4.573  l-8.17,1.815C40.32,27.763,40.419,28.198,40.419,28.662z M23.959,16.871c-6.512,0-11.792,5.279-11.792,11.791  s5.28,11.792,11.792,11.792s11.792-5.28,11.792-11.792S30.472,16.871,23.959,16.871z" fill="url('#linearGradientSjmnk87xm4')"></path>
        </g>
      </svg>
    </g>
    <g transform="matrix(1.0277,0,0,1.0277,428.677,47.2081)">
      <svg width="613" height="254">
        <defs>
          <linearGradient x1="0" y1="0.5" x2="1" y2="0.5" id="linearGradientSjmnk87xmv">
            <stop offset="0%" stop-color="#083b66"></stop>
            <stop offset="100%" stop-color="#083b66"></stop>
          </linearGradient>
        </defs>
        <g transform="matrix(1,0,0,1,0,145.5)">
          <path d="M30.40 0L30.40 0L6 0L6.10-1L7.30-1L7.30-1Q9.90-1 11.75-2.80L11.75-2.80L11.75-2.80Q13.60-4.60 13.70-7.20L13.70-7.20L13.70-62.80L13.70-62.80Q13.70-65.40 11.80-67.20L11.80-67.20L11.80-67.20Q9.90-69 7.30-69L7.30-69L6.10-69L6-70L25.90-70L25.90-70Q36.20-70 41.90-65.45L41.90-65.45L41.90-65.45Q47.60-60.90 47.60-53.30L47.60-53.30L47.60-53.30Q47.60-47.30 44.40-43.35L44.40-43.35L44.40-43.35Q41.20-39.40 36.60-38.10L36.60-38.10L36.60-38.10Q44.50-36.90 49.10-31.60L49.10-31.60L49.10-31.60Q53.70-26.30 53.70-18.25L53.70-18.25L53.70-18.25Q53.70-10.20 47.55-5.10L47.55-5.10L47.55-5.10Q41.40 0 30.40 0ZM20.20-66.80L20.20-3.60L30-3.60L30-3.60Q30.10-3.60 30.20-3.60L30.20-3.60L30.20-3.60Q37.80-3.60 42-7.75L42-7.75L42-7.75Q46.20-11.90 46.20-19.50L46.20-19.50L46.20-19.50Q46.20-23.80 44.75-27.05L44.75-27.05L44.75-27.05Q43.30-30.30 41.10-32.20L41.10-32.20L41.10-32.20Q35.30-37 23.70-37L23.70-37L23.70-37Q23.70-37 23.60-37L23.60-37L23.60-37.90L23.60-37.90Q23.70-37.90 24.55-37.90L24.55-37.90L24.55-37.90Q25.40-37.90 27-38.10L27-38.10L27-38.10Q28.60-38.30 30.60-38.80L30.60-38.80L30.60-38.80Q32.60-39.30 34.20-40.40L34.20-40.40L34.20-40.40Q35.80-41.50 37.20-43L37.20-43L37.20-43Q40.10-46.30 40.10-52.85L40.10-52.85L40.10-52.85Q40.10-59.40 36.35-63.10L36.35-63.10L36.35-63.10Q32.60-66.80 25.50-66.80L25.50-66.80L20.20-66.80ZM125.10-60L125.10-59L123.60-59L123.60-59Q120.90-59 119.50-56.90L119.50-56.90L119.50-56.90Q118.90-56 118.80-54.80L118.80-54.80L118.80-21.10L118.80-21.10Q118.80-10.70 112.15-4.65L112.15-4.65L112.15-4.65Q105.50 1.40 93.90 1.40L93.90 1.40L93.90 1.40Q82.30 1.40 75.60-4.60L75.60-4.60L75.60-4.60Q68.90-10.60 68.90-21L68.90-21L68.90-54.70L68.90-54.70Q68.90-56.50 67.50-57.75L67.50-57.75L67.50-57.75Q66.10-59 64.10-59L64.10-59L62.60-59L62.60-60L81.60-60L81.60-59L80.10-59L80.10-59Q78.10-59 76.70-57.75L76.70-57.75L76.70-57.75Q75.30-56.50 75.30-54.70L75.30-54.70L75.30-22.20L75.30-22.20Q75.30-12.50 80.25-6.90L80.25-6.90L80.25-6.90Q85.20-1.30 94.25-1.30L94.25-1.30L94.25-1.30Q103.30-1.30 108.75-6.60L108.75-6.60L108.75-6.60Q114.20-11.90 114.20-21.10L114.20-21.10L114.20-54.70L114.20-54.70Q114.10-56.60 112.75-57.80L112.75-57.80L112.75-57.80Q111.40-59 109.40-59L109.40-59L107.90-59L107.90-60L125.10-60ZM152.80-56.90L152.80-56.90L147.50-56.90L147.50-6.40L147.50-6.40Q147.60-3.30 150.30-1.70L150.30-1.70L150.30-1.70Q151.60-1 153.20-1L153.20-1L154.50-1L154.60 0L134.10 0L134.10-1L135.50-1L135.50-1Q137.80-1 139.45-2.55L139.45-2.55L139.45-2.55Q141.10-4.10 141.10-6.30L141.10-6.30L141.10-53.80L141.10-53.80Q141.10-56 139.45-57.50L139.45-57.50L139.45-57.50Q137.80-59 135.50-59L135.50-59L134.10-59L134.10-60L159.20-60L159.20-60Q168.60-60 174.05-55.70L174.05-55.70L174.05-55.70Q179.50-51.40 179.50-44.40L179.50-44.40L179.50-44.40Q179.50-37.40 175.10-32.70L175.10-32.70L175.10-32.70Q170.70-28 163.90-27.30L163.90-27.30L163.90-27.30Q167.10-25.90 171.60-19.50L171.60-19.50L171.60-19.50Q171.50-19.50 175.05-15.10L175.05-15.10L175.05-15.10Q178.60-10.70 180.75-8.25L180.75-8.25L180.75-8.25Q182.90-5.80 184.30-4.50L184.30-4.50L184.30-4.50Q188-1 192.80-1L192.80-1L192.80 0L189.70 0L189.70 0Q181.80 0 177.30-3.10L177.30-3.10L177.30-3.10Q173.90-5.40 171.10-8.80L171.10-8.80L171.10-8.80Q170.50-9.60 166.05-15.85L166.05-15.85L166.05-15.85Q161.60-22.10 161.30-22.50L161.30-22.50L161.30-22.50Q155.90-29.20 151.20-29.20L151.20-29.20L151.20-30.20L151.20-30.20Q162.90-30.20 165.30-31.40L165.30-31.40L165.30-31.40Q168.60-33.10 169.80-35L169.80-35L169.80-35Q172.30-39 172.30-43.80L172.30-43.80L172.30-43.80Q172.30-49.90 168.70-53.20L168.70-53.20L168.70-53.20Q165.10-56.50 159-56.80L159-56.80L159-56.80Q156.30-56.90 152.80-56.90ZM265.70-59L264-59L264-59Q261.80-59 260.20-57.55L260.20-57.55L260.20-57.55Q258.60-56.10 258.50-54L258.50-54L258.50-11.40L258.50-11.40Q258.50-5.60 259.20-0.40L259.20-0.40L259.40 1.40L258.50 1.40L206.50-47.90L206.50-6.20L206.50-6.20Q206.50-4 208.10-2.50L208.10-2.50L208.10-2.50Q209.70-1 212-1L212-1L213.70-1L213.70 0L194.80 0L194.80-1L196.50-1L196.50-1Q198.80-1 200.40-2.50L200.40-2.50L200.40-2.50Q202-4 202-6.20L202-6.20L202-49L202-49Q202-55.10 201.30-59.90L201.30-59.90L201.10-61.50L202.20-61.40L254.10-12.50L254.10-54L254.10-54Q253.90-56.10 252.30-57.55L252.30-57.55L252.30-57.55Q250.70-59 248.50-59L248.50-59L246.80-59L246.80-60L265.70-60L265.70-59ZM274.70-1L276.10-1L276.10-1Q278.80-1 280.80-2.60L280.80-2.60L280.80-2.60Q282.80-4.20 282.80-6.40L282.80-6.40L282.80-53.60L282.80-53.60Q282.80-55.80 280.80-57.40L280.80-57.40L280.80-57.40Q278.80-59 276.00-59L276.00-59L274.70-59L274.70-60L297.30-60L297.30-59L296.00-59L296.00-59Q293.30-59 291.35-57.50L291.35-57.50L291.35-57.50Q289.40-56 289.20-53.80L289.20-53.80L289.20-6.30L289.20-6.30Q289.30-4.10 291.30-2.55L291.30-2.55L291.30-2.55Q293.30-1 296.00-1L296.00-1L297.30-1L297.40 0L274.70 0L274.70-1ZM308.60-3.30L308.60-3.30L308.60-3.30Q308.30-4.50 308.30-8.20L308.30-8.20L308.30-8.20Q308.30-11.90 309.60-15.70L309.60-15.70L310.80-15.70L310.80-15.70Q310.70-14.80 310.70-13.90L310.70-13.90L310.70-13.90Q310.70-8.50 314.25-5.05L314.25-5.05L314.25-5.05Q317.80-1.60 324.10-1.60L324.10-1.60L324.10-1.60Q330.70-1.60 334.40-4.65L334.40-4.65L334.40-4.65Q338.10-7.70 338.10-12.55L338.10-12.55L338.10-12.55Q338.10-17.40 334.50-20.60L334.50-20.60L314.50-36L314.50-36Q309.70-40.10 309.70-47L309.70-47L309.70-47Q309.70-50.90 311.85-54.20L311.85-54.20L311.85-54.20Q314.00-57.50 317.85-59.45L317.85-59.45L317.85-59.45Q321.70-61.40 326.90-61.40L326.90-61.40L326.90-61.40Q332.10-61.40 336.10-60.50L336.10-60.50L339.40-60.50L339.60-49.60L338.50-49.60L338.50-49.60Q338.50-53.80 335.60-56.10L335.60-56.10L335.60-56.10Q332.70-58.40 327.30-58.40L327.30-58.40L327.30-58.40Q321.90-58.40 318.40-55.65L318.40-55.65L318.40-55.65Q314.90-52.90 314.90-48.55L314.90-48.55L314.90-48.55Q314.90-44.20 318.80-41L318.80-41L339.00-25.40L339.00-25.40Q343.60-21.60 343.60-14.80L343.60-14.80L343.60-14.80Q343.60-8 338.45-3.30L338.45-3.30L338.45-3.30Q333.30 1.40 325.90 1.40L325.90 1.40L325.90 1.40Q321.00 1.40 316.10 0.20L316.10 0.20L316.10 0.20Q311.20-1 308.60-3.30ZM397.80-1L399.00-1L399.00-1Q401.30-1 403.00-2.55L403.00-2.55L403.00-2.55Q404.70-4.10 404.80-6.30L404.80-6.30L404.80-28.10L367.90-28.10L367.90-6.30L367.90-6.30Q368.00-4.10 369.70-2.55L369.70-2.55L369.70-2.55Q371.40-1 373.70-1L373.70-1L374.90-1L374.90 0L354.50 0L354.50-1L355.70-1L355.70-1Q358.10-1 359.75-2.60L359.75-2.60L359.75-2.60Q361.40-4.20 361.50-6.40L361.50-6.40L361.50-53.60L361.50-53.60Q361.40-55.80 359.70-57.40L359.70-57.40L359.70-57.40Q358.00-59 355.70-59L355.70-59L354.50-59L354.50-60L374.90-60L374.90-59L373.70-59L373.70-59Q371.40-59 369.70-57.45L369.70-57.45L369.70-57.45Q368.00-55.90 367.90-53.70L367.90-53.70L367.90-31.10L404.80-31.10L404.80-53.60L404.80-53.60Q404.80-55.80 403.50-57L403.50-57L403.50-57Q401.40-59 399.00-59L399.00-59L397.80-59L397.80-60L418.20-60L418.20-59L417.00-59L417.00-59Q414.70-59 413.00-57.50L413.00-57.50L413.00-57.50Q411.30-56 411.20-53.80L411.20-53.80L411.20-6.30L411.20-6.30Q411.30-4.10 412.50-3L412.50-3L412.50-3Q414.70-1 417.00-1L417.00-1L418.20-1L418.20 0L397.80 0L397.80-1ZM429.10-1L430.50-1L430.50-1Q432.90-1 434.55-2.55L434.55-2.55L434.55-2.55Q436.20-4.10 436.30-6.30L436.30-6.30L436.30-53.80L436.30-53.80Q436.30-56 434.60-57.50L434.60-57.50L434.60-57.50Q432.90-59 430.50-59L430.50-59L429.10-59L429.10-60L458.30-60L458.30-60Q462.40-60 465.50-60.60L465.50-60.60L465.50-60.60Q468.60-61.20 469.50-61.60L469.50-61.60L469.50-50.20L468.40-50.30L468.40-51.80L468.40-51.80Q468.40-53.90 467.00-55.40L467.00-55.40L467.00-55.40Q465.60-56.90 463.40-56.90L463.40-56.90L442.60-56.90L442.60-31.50L459.70-31.50L459.70-31.50Q461.70-31.50 462.75-32.70L462.75-32.70L462.75-32.70Q463.80-33.90 463.80-35.70L463.80-35.70L463.80-37L464.90-37L464.90-23L463.80-23L463.80-24.30L463.80-24.30Q463.80-27.10 461.70-28.10L461.70-28.10L461.70-28.10Q460.90-28.40 460.00-28.50L460.00-28.50L442.60-28.50L442.60-3.10L458.30-3.10L458.30-3.10Q462.90-3.10 466.05-4.70L466.05-4.70L466.05-4.70Q469.20-6.30 470.85-8.50L470.85-8.50L470.85-8.50Q472.50-10.70 474.20-14.30L474.20-14.30L475.20-14.30L469.70 0L429.10 0L429.10-1ZM548.20-30L548.20-30L548.20-30Q548.20-16.10 539.55-8.05L539.55-8.05L539.55-8.05Q530.90 0 516.10 0L516.10 0L482.70 0L482.70-1L484.00-1L484.00-1Q486.40-1 488.00-2.60L488.00-2.60L488.00-2.60Q489.60-4.20 489.70-6.40L489.70-6.40L489.70-53.60L489.70-53.60Q489.60-56 487.95-57.50L487.95-57.50L487.95-57.50Q486.30-59 483.90-59L483.90-59L482.70-59L482.70-60L516.10-60L516.10-60Q525.90-60 533.15-56.40L533.15-56.40L533.15-56.40Q540.40-52.80 544.30-46L544.30-46L544.30-46Q548.20-39.20 548.20-30ZM516.10-57L496.20-57L496.20-3L516.10-3L516.10-3Q527.60-3 534.30-10.25L534.30-10.25L534.30-10.25Q541.00-17.50 541.00-30L541.00-30L541.00-30Q541.00-42.50 534.30-49.75L534.30-49.75L534.30-49.75Q527.60-57 516.10-57L516.10-57Z" fill="url('#linearGradientSjmnk87xmv')"></path>
        </g>
        <path fill="none" style=""></path>
      </svg>
    </g>
    <g transform="matrix(1.1325,0,0,1.1325,518.156,128.0376)">
      <svg width="400" height="254">
        <defs>
          <linearGradient x1="0" y1="0.5" x2="1" y2="0.5" id="linearGradientSjmnk87xms">
            <stop offset="0%" stop-color="#083b66"></stop>
            <stop offset="100%" stop-color="#083b66"></stop>
          </linearGradient>
        </defs>
        <g transform="matrix(1,0,0,1,0,145.5)">
          <path d="M30.40 0L30.40 0L6 0L6.10-1L7.30-1L7.30-1Q9.90-1 11.75-2.80L11.75-2.80L11.75-2.80Q13.60-4.60 13.70-7.20L13.70-7.20L13.70-62.80L13.70-62.80Q13.70-65.40 11.80-67.20L11.80-67.20L11.80-67.20Q9.90-69 7.30-69L7.30-69L6.10-69L6-70L25.90-70L25.90-70Q36.20-70 41.90-65.45L41.90-65.45L41.90-65.45Q47.60-60.90 47.60-53.30L47.60-53.30L47.60-53.30Q47.60-47.30 44.40-43.35L44.40-43.35L44.40-43.35Q41.20-39.40 36.60-38.10L36.60-38.10L36.60-38.10Q44.50-36.90 49.10-31.60L49.10-31.60L49.10-31.60Q53.70-26.30 53.70-18.25L53.70-18.25L53.70-18.25Q53.70-10.20 47.55-5.10L47.55-5.10L47.55-5.10Q41.40 0 30.40 0ZM20.20-66.80L20.20-3.60L30-3.60L30-3.60Q30.10-3.60 30.20-3.60L30.20-3.60L30.20-3.60Q37.80-3.60 42-7.75L42-7.75L42-7.75Q46.20-11.90 46.20-19.50L46.20-19.50L46.20-19.50Q46.20-23.80 44.75-27.05L44.75-27.05L44.75-27.05Q43.30-30.30 41.10-32.20L41.10-32.20L41.10-32.20Q35.30-37 23.70-37L23.70-37L23.70-37Q23.70-37 23.60-37L23.60-37L23.60-37.90L23.60-37.90Q23.70-37.90 24.55-37.90L24.55-37.90L24.55-37.90Q25.40-37.90 27-38.10L27-38.10L27-38.10Q28.60-38.30 30.60-38.80L30.60-38.80L30.60-38.80Q32.60-39.30 34.20-40.40L34.20-40.40L34.20-40.40Q35.80-41.50 37.20-43L37.20-43L37.20-43Q40.10-46.30 40.10-52.85L40.10-52.85L40.10-52.85Q40.10-59.40 36.35-63.10L36.35-63.10L36.35-63.10Q32.60-66.80 25.50-66.80L25.50-66.80L20.20-66.80ZM81.80-56.90L81.80-56.90L76.50-56.90L76.50-6.40L76.50-6.40Q76.60-3.30 79.30-1.70L79.30-1.70L79.30-1.70Q80.60-1 82.20-1L82.20-1L83.50-1L83.60 0L63.10 0L63.10-1L64.50-1L64.50-1Q66.80-1 68.45-2.55L68.45-2.55L68.45-2.55Q70.10-4.10 70.10-6.30L70.10-6.30L70.10-53.80L70.10-53.80Q70.10-56 68.45-57.50L68.45-57.50L68.45-57.50Q66.80-59 64.50-59L64.50-59L63.10-59L63.10-60L88.20-60L88.20-60Q97.60-60 103.05-55.70L103.05-55.70L103.05-55.70Q108.50-51.40 108.50-44.40L108.50-44.40L108.50-44.40Q108.50-37.40 104.10-32.70L104.10-32.70L104.10-32.70Q99.70-28 92.90-27.30L92.90-27.30L92.90-27.30Q96.10-25.90 100.60-19.50L100.60-19.50L100.60-19.50Q100.50-19.50 104.05-15.10L104.05-15.10L104.05-15.10Q107.60-10.70 109.75-8.25L109.75-8.25L109.75-8.25Q111.90-5.80 113.30-4.50L113.30-4.50L113.30-4.50Q117-1 121.80-1L121.80-1L121.80 0L118.70 0L118.70 0Q110.80 0 106.30-3.10L106.30-3.10L106.30-3.10Q102.90-5.40 100.10-8.80L100.10-8.80L100.10-8.80Q99.50-9.60 95.05-15.85L95.05-15.85L95.05-15.85Q90.60-22.10 90.30-22.50L90.30-22.50L90.30-22.50Q84.90-29.20 80.20-29.20L80.20-29.20L80.20-30.20L80.20-30.20Q91.90-30.20 94.30-31.40L94.30-31.40L94.30-31.40Q97.60-33.10 98.80-35L98.80-35L98.80-35Q101.30-39 101.30-43.80L101.30-43.80L101.30-43.80Q101.30-49.90 97.70-53.20L97.70-53.20L97.70-53.20Q94.10-56.50 88-56.80L88-56.80L88-56.80Q85.30-56.90 81.80-56.90ZM186.30-1L186.30-1L187.10-1L187.10 0L166.60 0L166.60-1L167.40-1L167.40-1Q169.30-1 170.30-2.30L170.30-2.30L170.30-2.30Q171.30-3.60 171.30-4.75L171.30-4.75L171.30-4.75Q171.30-5.90 170.90-7L170.90-7L165.40-20.30L140.10-20.30L134.60-7.30L134.60-7.30Q134.10-6 134.10-4.85L134.10-4.85L134.10-4.85Q134.10-3.70 135.10-2.35L135.10-2.35L135.10-2.35Q136.10-1 138.10-1L138.10-1L138.90-1L138.90 0L119.80 0L119.80-1L120.60-1L120.60-1Q122.70-1 124.85-2.45L124.85-2.45L124.85-2.45Q127.00-3.90 128.40-6.80L128.40-6.80L128.40-6.80Q150.30-53.60 151.20-55.80L151.20-55.80L151.20-55.80Q152.90-60 153-61.40L153-61.40L153.90-61.40L178.60-6.80L178.60-6.80Q181.50-1 186.30-1ZM153-50.70L141.40-23.30L164.20-23.30L153-50.70ZM261-59L259.30-59L259.30-59Q257.10-59 255.50-57.55L255.50-57.55L255.50-57.55Q253.90-56.10 253.80-54L253.80-54L253.80-11.40L253.80-11.40Q253.80-5.60 254.50-0.40L254.50-0.40L254.70 1.40L253.80 1.40L201.80-47.90L201.80-6.20L201.80-6.20Q201.80-4 203.40-2.50L203.40-2.50L203.40-2.50Q205.00-1 207.30-1L207.30-1L209.00-1L209.00 0L190.10 0L190.10-1L191.80-1L191.80-1Q194.10-1 195.70-2.50L195.70-2.50L195.70-2.50Q197.30-4 197.30-6.20L197.30-6.20L197.30-49L197.30-49Q197.30-55.10 196.60-59.90L196.60-59.90L196.40-61.50L197.50-61.40L249.40-12.50L249.40-54L249.40-54Q249.20-56.10 247.60-57.55L247.60-57.55L247.60-57.55Q246.00-59 243.80-59L243.80-59L242.10-59L242.10-60L261-60L261-59ZM335.50-30L335.50-30L335.50-30Q335.50-16.10 326.85-8.05L326.85-8.05L326.85-8.05Q318.20 0 303.40 0L303.40 0L270 0L270-1L271.30-1L271.30-1Q273.70-1 275.30-2.60L275.30-2.60L275.30-2.60Q276.90-4.20 277-6.40L277-6.40L277-53.60L277-53.60Q276.90-56 275.25-57.50L275.25-57.50L275.25-57.50Q273.60-59 271.20-59L271.20-59L270-59L270-60L303.40-60L303.40-60Q313.20-60 320.45-56.40L320.45-56.40L320.45-56.40Q327.70-52.80 331.60-46L331.60-46L331.60-46Q335.50-39.20 335.50-30ZM303.40-57L283.50-57L283.50-3L303.40-3L303.40-3Q314.90-3 321.60-10.25L321.60-10.25L321.60-10.25Q328.30-17.50 328.30-30L328.30-30L328.30-30Q328.30-42.50 321.60-49.75L321.60-49.75L321.60-49.75Q314.90-57 303.40-57L303.40-57Z" fill="url('#linearGradientSjmnk87xms')"></path>
        </g>
        <path fill="none" style=""></path>
      </svg>
    </g>
    <g transform="matrix(3.0755,0,0,3.0755,274.7668,15.6867)">
      <svg width="97" height="101.703" viewBox="2.4989999999999988,0.1479999999999979,97,101.703">
        <defs>
          <linearGradient x1="0" y1="0.5" x2="1" y2="0.5" id="linearGradientSjmnk87xmm">
            <stop offset="26.54%" stop-color="#f2af58"></stop>
            <stop offset="39.81%" stop-color="#74d14c"></stop>
            <stop offset="68.96%" stop-color="#083b66"></stop>
            <stop offset="100%" stop-color="#083b66"></stop>
          </linearGradient>
        </defs>
        <g>
          <path fill-rule="evenodd" clip-rule="evenodd" d="M82.743,28.662c-5.281,0-9.699-3.506-11.181-8.302l-4.053,0.9l-1.102-4.573  l4.707-1.045c0.636-5.891,5.566-10.494,11.628-10.494c6.494,0,11.757,5.264,11.757,11.757S89.237,28.662,82.743,28.662z   M82.743,9.852c-3.895,0-7.054,3.158-7.054,7.054s3.159,7.054,7.054,7.054s7.054-3.159,7.054-7.054S86.638,9.852,82.743,9.852z   M87.446,75.689c0,11.688-9.475,21.162-21.162,21.162c-11.688,0-21.163-9.475-21.163-21.162c0-5.816,2.349-11.082,6.147-14.907  l-6.562-7.344l3.45-3.196l6.789,7.599c3.281-2.088,7.164-3.313,11.339-3.313C77.972,54.527,87.446,64.001,87.446,75.689z   M66.284,59.229c-9.091,0-16.46,7.369-16.46,16.46s7.369,16.459,16.46,16.459s16.459-7.368,16.459-16.459  S75.375,59.229,66.284,59.229z M51.941,19.902l9.876-2.194l1.103,4.573l-9.876,2.193L51.941,19.902z M40.419,28.662  c0,3.549-1.148,6.814-3.059,9.503l7.661,8.572l-3.45,3.198l-7.491-8.382c-2.799,2.202-6.285,3.569-10.122,3.569  c-9.091,0-16.459-7.369-16.459-16.459s7.369-16.459,16.459-16.459c6.987,0,12.921,4.371,15.309,10.515l8.082-1.796l1.102,4.573  l-8.17,1.815C40.32,27.763,40.419,28.198,40.419,28.662z M23.959,16.871c-6.512,0-11.792,5.279-11.792,11.791  s5.28,11.792,11.792,11.792s11.792-5.28,11.792-11.792S30.472,16.871,23.959,16.871z" fill="url('#linearGradientSjmnk87xmm')"></path>
        </g>
      </svg>
    </g>
  </g>
</svg>